<!DOCTYPE svg PUBLIC "-//W3C//DTD SVG 1.1//EN" "http://www.w3.org/Graphics/SVG/1.1/DTD/svg11.dtd">
<!-- Uploaded to: SVG Repo, www.svgrepo.com, Transformed by: SVG Repo Mixer Tools -->
<svg height="800px" width="800px" version="1.1" id="Layer_1" xmlns="http://www.w3.org/2000/svg" xmlns:xlink="http://www.w3.org/1999/xlink" viewBox="-51.2 -51.2 614.40 614.40" xml:space="preserve" fill="#000000" transform="rotate(0)matrix(-1, 0, 0, 1, 0, 0)">
<g id="SVGRepo_bgCarrier" stroke-width="0" transform="translate(23.039999999999992,23.039999999999992), scale(0.91)">
<path transform="translate(-51.2, -51.2), scale(38.4)" fill="#7ed0ec" d="M9.166.33a2.25 2.25 0 00-2.332 0l-5.25 3.182A2.25 2.25 0 00.5 5.436v5.128a2.25 2.25 0 001.084 1.924l5.25 3.182a2.25 2.25 0 002.332 0l5.25-3.182a2.25 2.25 0 001.084-1.924V5.436a2.25 2.25 0 00-1.084-1.924L9.166.33z" strokewidth="0"/>
</g>
<g id="SVGRepo_tracerCarrier" stroke-linecap="round" stroke-linejoin="round" stroke="#CCCCCC" stroke-width="21.503999999999998"> <path style="fill:#ffffff;" d="M256,504C119.248,504,8,392.752,8,256S119.248,8,256,8s248,111.248,248,248S392.752,504,256,504z"/> <path style="fill:#13B7E6;" d="M256,16c132.336,0,240,107.664,240,240S388.336,496,256,496S16,388.336,16,256S123.664,16,256,16 M256,0C114.616,0,0,114.616,0,256s114.616,256,256,256s256-114.616,256-256S397.384,0,256,0L256,0z"/> <polygon points="218.864,207.624 197.184,143.92 141.048,143.92 141.048,126.896 209.488,126.896 235.112,202.168 "/> <polygon style="fill:#FFD67F;" points="177.28,193.328 415.368,193.328 369.984,319.736 216.928,319.736 "/> <ellipse cx="243.688" cy="367.176" rx="33.016" ry="32.776"/> <ellipse cx="343.272" cy="367.176" rx="33.016" ry="32.776"/> </g>
<g id="SVGRepo_iconCarrier"> <path style="fill:#ffffff;" d="M256,504C119.248,504,8,392.752,8,256S119.248,8,256,8s248,111.248,248,248S392.752,504,256,504z"/> <path style="fill:#13B7E6;" d="M256,16c132.336,0,240,107.664,240,240S388.336,496,256,496S16,388.336,16,256S123.664,16,256,16 M256,0C114.616,0,0,114.616,0,256s114.616,256,256,256s256-114.616,256-256S397.384,0,256,0L256,0z"/> <polygon points="218.864,207.624 197.184,143.92 141.048,143.92 141.048,126.896 209.488,126.896 235.112,202.168 "/> <polygon style="fill:#FFD67F;" points="177.28,193.328 415.368,193.328 369.984,319.736 216.928,319.736 "/> <ellipse cx="243.688" cy="367.176" rx="33.016" ry="32.776"/> <ellipse cx="343.272" cy="367.176" rx="33.016" ry="32.776"/> </g>
</svg>